<?xml version="1.0" standalone="no"?>
<!DOCTYPE svg PUBLIC "-//W3C//DTD SVG 20010904//EN"
 "http://www.w3.org/TR/2001/REC-SVG-20010904/DTD/svg10.dtd">
<svg version="1.0" xmlns="http://www.w3.org/2000/svg"
 width="499.000000pt" height="499.000000pt" viewBox="0 0 499.000000 499.000000"
 preserveAspectRatio="xMidYMid meet">
<metadata>
Created by potrace 1.16, written by Peter Selinger 2001-2019
</metadata>
<g transform="translate(0.000000,499.000000) scale(0.100000,-0.100000)"
fill="#000000" stroke="none">
<path d="M3784 2962 c-67 -65 -130 -133 -139 -152 -14 -27 -17 -57 -16 -133
l1 -99 -89 -92 c-50 -50 -97 -108 -106 -128 -11 -28 -15 -75 -15 -188 l0 -152
80 72 c122 111 124 115 128 305 l3 160 123 120 c150 146 158 160 154 301 l-3
102 -121 -116z"/>
<path d="M3814 2628 c-67 -68 -95 -104 -103 -133 -7 -25 -11 -144 -11 -315 l1
-275 92 95 c74 75 96 104 105 140 9 32 12 124 10 313 l-3 268 -91 -93z"/>
<path d="M4373 2627 c-65 -67 -94 -106 -102 -133 -10 -37 -16 -184 -7 -184 2
0 45 39 94 88 104 101 115 126 110 246 l-3 78 -92 -95z"/>
<path d="M3243 2617 c-96 -98 -108 -121 -101 -202 l3 -38 91 89 c77 75 93 96
103 136 13 55 15 108 3 108 -5 0 -49 -42 -99 -93z"/>
<path d="M3258 2381 c-115 -110 -119 -123 -116 -316 l3 -150 91 90 c112 110
116 120 112 317 l-3 143 -87 -84z"/>
<path d="M4098 2379 c-48 -47 -94 -101 -103 -122 -11 -27 -15 -75 -15 -194 l0
-158 90 90 c117 117 121 128 118 320 l-3 149 -87 -85z"/>
<path d="M520 2275 c0 -137 1 -145 20 -145 18 0 20 8 22 96 l3 96 35 -61 c19
-33 37 -61 40 -61 3 0 21 28 40 61 l35 61 3 -96 c2 -88 4 -96 22 -96 19 0 20
8 20 145 0 133 -1 145 -18 145 -12 0 -32 -24 -58 -70 -21 -38 -41 -70 -44 -70
-3 0 -23 32 -44 70 -26 46 -46 70 -58 70 -17 0 -18 -12 -18 -145z"/>
<path d="M976 2279 c-25 -77 -46 -143 -46 -146 0 -2 10 -3 22 -1 14 2 24 12
28 28 5 23 11 25 62 28 54 3 56 2 66 -28 8 -21 17 -30 33 -30 13 0 19 5 16 13
-3 7 -24 73 -47 145 -38 119 -45 132 -65 132 -21 0 -28 -14 -69 -141z"/>
<path d="M1330 2275 c0 -138 1 -145 20 -145 17 0 20 7 20 45 0 59 19 59 57 0
20 -32 35 -45 51 -45 29 0 28 7 -9 55 l-29 39 25 13 c33 18 45 43 45 93 0 65
-32 90 -115 90 l-65 0 0 -145z"/>
<path d="M1689 2288 c-23 -73 -44 -139 -47 -145 -2 -8 4 -13 16 -13 13 0 24
10 31 30 9 28 13 30 64 30 51 0 55 -2 67 -30 8 -19 20 -30 32 -30 12 0 18 5
15 13 -2 6 -23 72 -46 145 -38 120 -44 132 -66 132 -21 0 -27 -12 -66 -132z"/>
<path d="M2040 2275 c0 -137 1 -145 20 -145 16 0 19 8 22 58 l3 57 27 -46 c32
-54 51 -72 73 -67 13 2 9 15 -24 66 -23 34 -41 70 -41 78 0 8 13 34 29 57 15
23 33 52 40 65 11 20 9 22 -13 22 -19 0 -32 -12 -58 -57 l-33 -58 -3 58 c-3
49 -6 57 -22 57 -19 0 -20 -8 -20 -145z"/>
<path d="M2380 2275 l0 -145 80 0 c73 0 80 2 80 20 0 18 -7 20 -60 20 l-60 0
0 45 0 45 46 0 c38 0 45 3 42 18 -2 12 -15 18 -46 20 -42 3 -42 3 -42 43 l0
39 60 0 c53 0 60 2 60 20 0 18 -7 20 -80 20 l-80 0 0 -145z"/>
<path d="M2710 2400 c0 -18 7 -20 55 -20 30 0 55 -3 55 -6 0 -3 -25 -58 -55
-121 -30 -64 -55 -117 -55 -119 0 -2 38 -4 85 -4 78 0 85 2 85 20 0 18 -7 20
-54 20 l-55 0 59 125 59 125 -90 0 c-82 0 -89 -1 -89 -20z"/>
</g>
</svg>
